<?xml version="1.0" encoding="UTF-8"?>
<svg width="1400" height="860" viewBox="0 0 1400 860" fill="none" xmlns="http://www.w3.org/2000/svg">
  <defs>
    <linearGradient id="bgInline" x1="80" y1="80" x2="1320" y2="800" gradientUnits="userSpaceOnUse">
      <stop stop-color="#10243e" />
      <stop offset="1" stop-color="#1e507d" />
    </linearGradient>
  </defs>
  <rect width="1400" height="860" rx="52" fill="url(#bgInline)" />
  <circle cx="1180" cy="132" r="150" fill="#1da8c7" opacity="0.14" />
  <circle cx="170" cy="720" r="186" fill="#90e2d6" opacity="0.15" />
  <g transform="translate(60 78)">
    <rect width="722" height="666" rx="40" fill="rgba(255,255,255,0.08)" stroke="rgba(255,255,255,0.14)" />
    <rect x="30" y="30" width="132" height="32" rx="16" fill="#1da8c7" opacity="0.92" />
    <text x="96" y="51" text-anchor="middle" fill="#10243e" font-size="14" font-weight="800" font-family="Inter, Arial, Helvetica, sans-serif">Atlas Insight</text>
    <text x="30" y="106" fill="#f4fdff" font-size="28" font-weight="800" font-family="Inter, Arial, Helvetica, sans-serif">Atlas Labs quality flow</text>
    <text x="30" y="136" fill="#d6eef2" fill-opacity="0.88" font-size="16" font-weight="600" font-family="Inter, Arial, Helvetica, sans-serif">How our internal review system supports</text><text x="30" y="157" fill="#d6eef2" fill-opacity="0.88" font-size="16" font-weight="600" font-family="Inter, Arial, Helvetica, sans-serif">cleaner supply decisions</text>
    <g transform="scale(0.86) translate(8 114)">
      
    <g transform="translate(56 190)">
      <rect width="712" height="408" rx="34" fill="rgba(255,255,255,0.07)" stroke="rgba(255,255,255,0.15)" />
      <g transform="translate(44 48)">
        <path d="M88 0C112 0 128 18 128 42V72H170C192 72 208 88 208 110V128C208 150 194 168 172 172L212 252H166L132 186H78V300H36V186H0V148H36V42C36 18 60 0 88 0Z" fill="rgba(255,255,255,0.12)" stroke="rgba(255,255,255,0.2)" stroke-width="4" />
        <circle cx="136" cy="136" r="34" fill="#90e2d6" opacity="0.9" />
      </g>
      
    <g transform="translate(300 40)">
      <rect width="356" height="112" rx="24" fill="rgba(255,255,255,0.06)" stroke="rgba(255,255,255,0.14)" />
      <rect x="22" y="20" width="94" height="10" rx="5" fill="#90e2d6" opacity="0.92" />
      <text x="22" y="56" fill="#f4fdff" font-size="20" font-weight="700" font-family="Inter, Arial, Helvetica, sans-serif">Incoming review</text>
      <text x="22" y="82" fill="#f4fdff" fill-opacity="0.72" font-size="14" font-weight="500" font-family="Inter, Arial, Helvetica, sans-serif">Built into our internal</text><text x="22" y="102" fill="#f4fdff" fill-opacity="0.72" font-size="14" font-weight="500" font-family="Inter, Arial, Helvetica, sans-serif">review and supply-control</text>
    </g>
  
      
    <g transform="translate(300 178)">
      <rect width="356" height="112" rx="24" fill="rgba(255,255,255,0.06)" stroke="rgba(255,255,255,0.14)" />
      <rect x="22" y="20" width="94" height="10" rx="5" fill="#90e2d6" opacity="0.92" />
      <text x="22" y="56" fill="#f4fdff" font-size="20" font-weight="700" font-family="Inter, Arial, Helvetica, sans-serif">Document checks</text>
      <text x="22" y="82" fill="#f4fdff" fill-opacity="0.72" font-size="14" font-weight="500" font-family="Inter, Arial, Helvetica, sans-serif">Supports clearer release</text><text x="22" y="102" fill="#f4fdff" fill-opacity="0.72" font-size="14" font-weight="500" font-family="Inter, Arial, Helvetica, sans-serif">review and supply</text>
    </g>
  
      
    <g transform="translate(300 316)">
      <rect width="172" height="112" rx="24" fill="rgba(255,255,255,0.06)" stroke="rgba(255,255,255,0.14)" />
      <rect x="22" y="20" width="94" height="10" rx="5" fill="#90e2d6" opacity="0.92" />
      <text x="22" y="56" fill="#f4fdff" font-size="20" font-weight="700" font-family="Inter, Arial, Helvetica, sans-serif">Batch alignment</text>
      <text x="22" y="82" fill="#f4fdff" fill-opacity="0.72" font-size="14" font-weight="500" font-family="Inter, Arial, Helvetica, sans-serif">Keeps lot-level review</text><text x="22" y="102" fill="#f4fdff" fill-opacity="0.72" font-size="14" font-weight="500" font-family="Inter, Arial, Helvetica, sans-serif">aligned with incoming</text>
    </g>
  
      
    <g transform="translate(484 316)">
      <rect width="172" height="112" rx="24" fill="rgba(255,255,255,0.06)" stroke="rgba(255,255,255,0.14)" />
      <rect x="22" y="20" width="94" height="10" rx="5" fill="#90e2d6" opacity="0.92" />
      <text x="22" y="56" fill="#f4fdff" font-size="20" font-weight="700" font-family="Inter, Arial, Helvetica, sans-serif">Supply continuity</text>
      <text x="22" y="82" fill="#f4fdff" fill-opacity="0.72" font-size="14" font-weight="500" font-family="Inter, Arial, Helvetica, sans-serif">Helps maintain continuity</text><text x="22" y="102" fill="#f4fdff" fill-opacity="0.72" font-size="14" font-weight="500" font-family="Inter, Arial, Helvetica, sans-serif">across repeat commercial</text>
    </g>
  
    </g>
  
    </g>
  </g>
  <g transform="translate(832 98)">
    <rect width="504" height="626" rx="38" fill="rgba(255,255,255,0.08)" stroke="rgba(255,255,255,0.14)" />
    <text x="34" y="54" fill="#90e2d6" font-size="15" font-weight="800" font-family="Inter, Arial, Helvetica, sans-serif">Atlas Labs</text>
    <text x="34" y="118" fill="#f4fdff" fill-opacity="1" font-size="38" font-weight="800" font-family="Inter, Arial, Helvetica, sans-serif">How our review system</text><text x="34" y="166" fill="#f4fdff" fill-opacity="1" font-size="38" font-weight="800" font-family="Inter, Arial, Helvetica, sans-serif">works</text>
    <text x="34" y="220" fill="#f4fdff" fill-opacity="0.82" font-size="18" font-weight="500" font-family="Inter, Arial, Helvetica, sans-serif">The steps we use to review</text><text x="34" y="246" fill="#f4fdff" fill-opacity="0.82" font-size="18" font-weight="500" font-family="Inter, Arial, Helvetica, sans-serif">batches and documents.</text>
    
    <g transform="translate(34 324)">
      <rect width="160" height="36" rx="18" fill="rgba(255,255,255,0.08)" stroke="rgba(255,255,255,0.18)" />
      <text x="80" y="23" text-anchor="middle" fill="#f4fdff" font-size="14" font-weight="700" font-family="Inter, Arial, Helvetica, sans-serif">Incoming review</text>
    </g>
  
    <g transform="translate(180 324)">
      <rect width="136" height="36" rx="18" fill="rgba(255,255,255,0.08)" stroke="rgba(255,255,255,0.18)" />
      <text x="68" y="23" text-anchor="middle" fill="#f4fdff" font-size="14" font-weight="700" font-family="Inter, Arial, Helvetica, sans-serif">Traceability</text>
    </g>
  
    <g transform="translate(326 324)">
      <rect width="160" height="36" rx="18" fill="rgba(255,255,255,0.08)" stroke="rgba(255,255,255,0.18)" />
      <text x="80" y="23" text-anchor="middle" fill="#f4fdff" font-size="14" font-weight="700" font-family="Inter, Arial, Helvetica, sans-serif">Batch alignment</text>
    </g>
  
    
    <g transform="translate(0 402)">
      <circle cx="18" cy="18" r="18" fill="#1da8c7" opacity="0.95" />
      <text x="18" y="24" text-anchor="middle" fill="#10243e" font-size="14" font-weight="800" font-family="Inter, Arial, Helvetica, sans-serif">1</text>
      <rect x="52" y="0" width="444" height="54" rx="18" fill="rgba(255,255,255,0.06)" stroke="rgba(255,255,255,0.12)" />
      <text x="76" y="23" fill="#f4fdff" fill-opacity="0.86" font-size="16" font-weight="500" font-family="Inter, Arial, Helvetica, sans-serif">Feels company-specific and operational instead</text><text x="76" y="42" fill="#f4fdff" fill-opacity="0.86" font-size="16" font-weight="500" font-family="Inter, Arial, Helvetica, sans-serif">of generic biotech imagery.</text>
    </g>
  
    <g transform="translate(0 474)">
      <circle cx="18" cy="18" r="18" fill="#90e2d6" opacity="0.95" />
      <text x="18" y="24" text-anchor="middle" fill="#10243e" font-size="14" font-weight="800" font-family="Inter, Arial, Helvetica, sans-serif">2</text>
      <rect x="52" y="0" width="444" height="54" rx="18" fill="rgba(255,255,255,0.06)" stroke="rgba(255,255,255,0.12)" />
      <text x="76" y="23" fill="#f4fdff" fill-opacity="0.86" font-size="16" font-weight="500" font-family="Inter, Arial, Helvetica, sans-serif">Explains the process behind Atlas Labs quality</text><text x="76" y="42" fill="#f4fdff" fill-opacity="0.86" font-size="16" font-weight="500" font-family="Inter, Arial, Helvetica, sans-serif">review in a more credible way.</text>
    </g>
  
  </g>
</svg>