<?xml version="1.0" encoding="UTF-8"?>
<svg width="1400" height="860" viewBox="0 0 1400 860" fill="none" xmlns="http://www.w3.org/2000/svg">
  <defs>
    <linearGradient id="bgInline" x1="80" y1="80" x2="1320" y2="800" gradientUnits="userSpaceOnUse">
      <stop stop-color="#0b2340" />
      <stop offset="1" stop-color="#19517d" />
    </linearGradient>
  </defs>
  <rect width="1400" height="860" rx="52" fill="url(#bgInline)" />
  <circle cx="1180" cy="132" r="150" fill="#1aa4cc" opacity="0.14" />
  <circle cx="170" cy="720" r="186" fill="#86e2d6" opacity="0.15" />
  <g transform="translate(60 78)">
    <rect width="722" height="666" rx="40" fill="rgba(255,255,255,0.08)" stroke="rgba(255,255,255,0.14)" />
    <rect x="30" y="30" width="132" height="32" rx="16" fill="#1aa4cc" opacity="0.92" />
    <text x="96" y="51" text-anchor="middle" fill="#0b2340" font-size="14" font-weight="800" font-family="Inter, Arial, Helvetica, sans-serif">Atlas Insight</text>
    <text x="30" y="106" fill="#f4fcff" font-size="28" font-weight="800" font-family="Inter, Arial, Helvetica, sans-serif">Custom project path</text>
    <text x="30" y="136" fill="#d7edf2" fill-opacity="0.88" font-size="16" font-weight="600" font-family="Inter, Arial, Helvetica, sans-serif">Moving from sequence brief to</text><text x="30" y="157" fill="#d7edf2" fill-opacity="0.88" font-size="16" font-weight="600" font-family="Inter, Arial, Helvetica, sans-serif">release-ready commercial supply</text>
    <g transform="scale(0.86) translate(8 114)">
      
    <g transform="translate(56 194)">
      <path d="M118 24C168 72 194 116 194 160C194 206 166 252 118 302" fill="none" stroke="#86e2d6" stroke-width="10" stroke-linecap="round" />
      <path d="M286 24C236 72 210 116 210 160C210 206 238 252 286 302" fill="none" stroke="#1aa4cc" stroke-width="10" stroke-linecap="round" />
      
          <line x1="134" y1="62" x2="270" y2="62" stroke="rgba(255,255,255,0.2)" stroke-width="6" />
          <circle cx="134" cy="62" r="12" fill="#1aa4cc" />
          <circle cx="270" cy="62" r="12" fill="#f4fcff" />
        
          <line x1="134" y1="110" x2="270" y2="110" stroke="rgba(255,255,255,0.2)" stroke-width="6" />
          <circle cx="134" cy="110" r="12" fill="#f4fcff" />
          <circle cx="270" cy="110" r="12" fill="#86e2d6" />
        
          <line x1="134" y1="158" x2="270" y2="158" stroke="rgba(255,255,255,0.2)" stroke-width="6" />
          <circle cx="134" cy="158" r="12" fill="#1aa4cc" />
          <circle cx="270" cy="158" r="12" fill="#f4fcff" />
        
          <line x1="134" y1="206" x2="270" y2="206" stroke="rgba(255,255,255,0.2)" stroke-width="6" />
          <circle cx="134" cy="206" r="12" fill="#f4fcff" />
          <circle cx="270" cy="206" r="12" fill="#86e2d6" />
        
          <line x1="134" y1="254" x2="270" y2="254" stroke="rgba(255,255,255,0.2)" stroke-width="6" />
          <circle cx="134" cy="254" r="12" fill="#1aa4cc" />
          <circle cx="270" cy="254" r="12" fill="#f4fcff" />
        
      
    <g transform="translate(356 0)">
      <rect width="332" height="112" rx="24" fill="rgba(255,255,255,0.06)" stroke="rgba(255,255,255,0.14)" />
      <rect x="22" y="20" width="94" height="10" rx="5" fill="#86e2d6" opacity="0.92" />
      <text x="22" y="56" fill="#f4fcff" font-size="20" font-weight="700" font-family="Inter, Arial, Helvetica, sans-serif">Sequence brief</text>
      <text x="22" y="82" fill="#f4fcff" fill-opacity="0.72" font-size="14" font-weight="500" font-family="Inter, Arial, Helvetica, sans-serif">Defined as part of the</text><text x="22" y="102" fill="#f4fcff" fill-opacity="0.72" font-size="14" font-weight="500" font-family="Inter, Arial, Helvetica, sans-serif">project brief and supply</text>
    </g>
  
    <g transform="translate(356 132)">
      <rect width="332" height="112" rx="24" fill="rgba(255,255,255,0.06)" stroke="rgba(255,255,255,0.14)" />
      <rect x="22" y="20" width="94" height="10" rx="5" fill="#86e2d6" opacity="0.92" />
      <text x="22" y="56" fill="#f4fcff" font-size="20" font-weight="700" font-family="Inter, Arial, Helvetica, sans-serif">Purity target</text>
      <text x="22" y="82" fill="#f4fcff" fill-opacity="0.72" font-size="14" font-weight="500" font-family="Inter, Arial, Helvetica, sans-serif">Defined as part of the</text><text x="22" y="102" fill="#f4fcff" fill-opacity="0.72" font-size="14" font-weight="500" font-family="Inter, Arial, Helvetica, sans-serif">project brief and supply</text>
    </g>
  
    <g transform="translate(356 264)">
      <rect width="332" height="112" rx="24" fill="rgba(255,255,255,0.06)" stroke="rgba(255,255,255,0.14)" />
      <rect x="22" y="20" width="94" height="10" rx="5" fill="#86e2d6" opacity="0.92" />
      <text x="22" y="56" fill="#f4fcff" font-size="20" font-weight="700" font-family="Inter, Arial, Helvetica, sans-serif">Production plan</text>
      <text x="22" y="82" fill="#f4fcff" fill-opacity="0.72" font-size="14" font-weight="500" font-family="Inter, Arial, Helvetica, sans-serif">Defined as part of the</text><text x="22" y="102" fill="#f4fcff" fill-opacity="0.72" font-size="14" font-weight="500" font-family="Inter, Arial, Helvetica, sans-serif">project brief and supply</text>
    </g>
  
    <g transform="translate(356 396)">
      <rect width="332" height="112" rx="24" fill="rgba(255,255,255,0.06)" stroke="rgba(255,255,255,0.14)" />
      <rect x="22" y="20" width="94" height="10" rx="5" fill="#86e2d6" opacity="0.92" />
      <text x="22" y="56" fill="#f4fcff" font-size="20" font-weight="700" font-family="Inter, Arial, Helvetica, sans-serif">Release support</text>
      <text x="22" y="82" fill="#f4fcff" fill-opacity="0.72" font-size="14" font-weight="500" font-family="Inter, Arial, Helvetica, sans-serif">Defined as part of the</text><text x="22" y="102" fill="#f4fcff" fill-opacity="0.72" font-size="14" font-weight="500" font-family="Inter, Arial, Helvetica, sans-serif">project brief and supply</text>
    </g>
  
    </g>
  
    </g>
  </g>
  <g transform="translate(832 98)">
    <rect width="504" height="626" rx="38" fill="rgba(255,255,255,0.08)" stroke="rgba(255,255,255,0.14)" />
    <text x="34" y="54" fill="#86e2d6" font-size="15" font-weight="800" font-family="Inter, Arial, Helvetica, sans-serif">Custom Peptides</text>
    <text x="34" y="118" fill="#f4fcff" fill-opacity="1" font-size="38" font-weight="800" font-family="Inter, Arial, Helvetica, sans-serif">Custom peptide</text><text x="34" y="166" fill="#f4fcff" fill-opacity="1" font-size="38" font-weight="800" font-family="Inter, Arial, Helvetica, sans-serif">projects</text>
    <text x="34" y="220" fill="#f4fcff" fill-opacity="0.82" font-size="18" font-weight="500" font-family="Inter, Arial, Helvetica, sans-serif">From sequence brief to</text><text x="34" y="246" fill="#f4fcff" fill-opacity="0.82" font-size="18" font-weight="500" font-family="Inter, Arial, Helvetica, sans-serif">production plan.</text>
    
    <g transform="translate(34 324)">
      <rect width="120" height="36" rx="18" fill="rgba(255,255,255,0.08)" stroke="rgba(255,255,255,0.18)" />
      <text x="60" y="23" text-anchor="middle" fill="#f4fcff" font-size="14" font-weight="700" font-family="Inter, Arial, Helvetica, sans-serif">Sequence</text>
    </g>
  
    <g transform="translate(180 324)">
      <rect width="120" height="36" rx="18" fill="rgba(255,255,255,0.08)" stroke="rgba(255,255,255,0.18)" />
      <text x="60" y="23" text-anchor="middle" fill="#f4fcff" font-size="14" font-weight="700" font-family="Inter, Arial, Helvetica, sans-serif">Purity</text>
    </g>
  
    <g transform="translate(326 324)">
      <rect width="120" height="36" rx="18" fill="rgba(255,255,255,0.08)" stroke="rgba(255,255,255,0.18)" />
      <text x="60" y="23" text-anchor="middle" fill="#f4fcff" font-size="14" font-weight="700" font-family="Inter, Arial, Helvetica, sans-serif">Lead time</text>
    </g>
  
    
    <g transform="translate(0 402)">
      <circle cx="18" cy="18" r="18" fill="#1aa4cc" opacity="0.95" />
      <text x="18" y="24" text-anchor="middle" fill="#0b2340" font-size="14" font-weight="800" font-family="Inter, Arial, Helvetica, sans-serif">1</text>
      <rect x="52" y="0" width="444" height="54" rx="18" fill="rgba(255,255,255,0.06)" stroke="rgba(255,255,255,0.12)" />
      <text x="76" y="23" fill="#f4fcff" fill-opacity="0.86" font-size="16" font-weight="500" font-family="Inter, Arial, Helvetica, sans-serif">Makes custom work feel structured and</text><text x="76" y="42" fill="#f4fcff" fill-opacity="0.86" font-size="16" font-weight="500" font-family="Inter, Arial, Helvetica, sans-serif">professionally managed.</text>
    </g>
  
    <g transform="translate(0 474)">
      <circle cx="18" cy="18" r="18" fill="#86e2d6" opacity="0.95" />
      <text x="18" y="24" text-anchor="middle" fill="#0b2340" font-size="14" font-weight="800" font-family="Inter, Arial, Helvetica, sans-serif">2</text>
      <rect x="52" y="0" width="444" height="54" rx="18" fill="rgba(255,255,255,0.06)" stroke="rgba(255,255,255,0.12)" />
      <text x="76" y="23" fill="#f4fcff" fill-opacity="0.86" font-size="16" font-weight="500" font-family="Inter, Arial, Helvetica, sans-serif">Explains that custom sourcing is a</text><text x="76" y="42" fill="#f4fcff" fill-opacity="0.86" font-size="16" font-weight="500" font-family="Inter, Arial, Helvetica, sans-serif">specification process, not just a request</text>
    </g>
  
  </g>
</svg>