<?xml version="1.0" encoding="UTF-8"?>
<svg width="1400" height="860" viewBox="0 0 1400 860" fill="none" xmlns="http://www.w3.org/2000/svg">
  <defs>
    <linearGradient id="bgInline" x1="80" y1="80" x2="1320" y2="800" gradientUnits="userSpaceOnUse">
      <stop stop-color="#10233f" />
      <stop offset="1" stop-color="#1b4f77" />
    </linearGradient>
  </defs>
  <rect width="1400" height="860" rx="52" fill="url(#bgInline)" />
  <circle cx="1180" cy="132" r="150" fill="#1fb2bd" opacity="0.14" />
  <circle cx="170" cy="720" r="186" fill="#9ae4d5" opacity="0.15" />
  <g transform="translate(60 78)">
    <rect width="722" height="666" rx="40" fill="rgba(255,255,255,0.08)" stroke="rgba(255,255,255,0.14)" />
    <rect x="30" y="30" width="132" height="32" rx="16" fill="#1fb2bd" opacity="0.92" />
    <text x="96" y="51" text-anchor="middle" fill="#10233f" font-size="14" font-weight="800" font-family="Inter, Arial, Helvetica, sans-serif">Atlas Insight</text>
    <text x="30" y="106" fill="#f5fdff" font-size="28" font-weight="800" font-family="Inter, Arial, Helvetica, sans-serif">Documentation review</text>
    <text x="30" y="136" fill="#d7edf2" fill-opacity="0.88" font-size="16" font-weight="600" font-family="Inter, Arial, Helvetica, sans-serif">Purity data, batch records, and release</text><text x="30" y="157" fill="#d7edf2" fill-opacity="0.88" font-size="16" font-weight="600" font-family="Inter, Arial, Helvetica, sans-serif">alignment in one view</text>
    <g transform="scale(0.86) translate(8 114)">
      
    <g transform="translate(60 184)">
      <g transform="translate(0 10)">
        <rect width="300" height="420" rx="34" fill="rgba(255,255,255,0.12)" stroke="rgba(255,255,255,0.2)" />
        <rect x="38" y="38" width="128" height="16" rx="8" fill="#9ae4d5" />
        <rect x="38" y="72" width="188" height="10" rx="5" fill="rgba(255,255,255,0.78)" />
        <rect x="38" y="118" width="220" height="12" rx="6" fill="rgba(255,255,255,0.26)" /><rect x="38" y="174" width="220" height="12" rx="6" fill="rgba(255,255,255,0.26)" /><rect x="38" y="230" width="220" height="12" rx="6" fill="rgba(255,255,255,0.26)" /><rect x="38" y="286" width="220" height="12" rx="6" fill="rgba(255,255,255,0.26)" />
        <path d="M42 330C96 310 152 318 196 286C232 260 242 226 252 194" fill="none" stroke="#1fb2bd" stroke-width="8" stroke-linecap="round" />
        <circle cx="234" cy="340" r="44" fill="#9ae4d5" opacity="0.95" />
        <path d="M216 340l12 12 24-28" fill="none" stroke="#10233f" stroke-width="6" stroke-linecap="round" stroke-linejoin="round" />
      </g>
      <g transform="translate(338 0)">
        
              <g transform="translate(0 0)">
                <rect width="384" height="126" rx="30" fill="rgba(255,255,255,0.07)" stroke="rgba(255,255,255,0.15)" />
                <circle cx="42" cy="44" r="16" fill="#9ae4d5" />
                <path d="M34 44l6 6 12-14" fill="none" stroke="#10233f" stroke-width="4" stroke-linecap="round" stroke-linejoin="round" />
                <text x="76" y="50" fill="#f5fdff" font-size="22" font-weight="750" font-family="Inter, Arial, Helvetica, sans-serif">Identity match</text>
                <rect x="76" y="72" width="226" height="10" rx="5" fill="rgba(255,255,255,0.24)" />
                <rect x="76" y="92" width="176" height="10" rx="5" fill="rgba(255,255,255,0.16)" />
              </g>
            
              <g transform="translate(0 154)">
                <rect width="384" height="126" rx="30" fill="rgba(255,255,255,0.07)" stroke="rgba(255,255,255,0.15)" />
                <circle cx="42" cy="44" r="16" fill="#1fb2bd" />
                <path d="M34 44l6 6 12-14" fill="none" stroke="#10233f" stroke-width="4" stroke-linecap="round" stroke-linejoin="round" />
                <text x="76" y="50" fill="#f5fdff" font-size="22" font-weight="750" font-family="Inter, Arial, Helvetica, sans-serif">Purity result</text>
                <rect x="76" y="72" width="226" height="10" rx="5" fill="rgba(255,255,255,0.24)" />
                <rect x="76" y="92" width="176" height="10" rx="5" fill="rgba(255,255,255,0.16)" />
              </g>
            
              <g transform="translate(0 308)">
                <rect width="384" height="126" rx="30" fill="rgba(255,255,255,0.07)" stroke="rgba(255,255,255,0.15)" />
                <circle cx="42" cy="44" r="16" fill="#9ae4d5" />
                <path d="M34 44l6 6 12-14" fill="none" stroke="#10233f" stroke-width="4" stroke-linecap="round" stroke-linejoin="round" />
                <text x="76" y="50" fill="#f5fdff" font-size="22" font-weight="750" font-family="Inter, Arial, Helvetica, sans-serif">Lot traceability</text>
                <rect x="76" y="72" width="226" height="10" rx="5" fill="rgba(255,255,255,0.24)" />
                <rect x="76" y="92" width="176" height="10" rx="5" fill="rgba(255,255,255,0.16)" />
              </g>
            
      </g>
    </g>
  
    </g>
  </g>
  <g transform="translate(832 98)">
    <rect width="504" height="626" rx="38" fill="rgba(255,255,255,0.08)" stroke="rgba(255,255,255,0.14)" />
    <text x="34" y="54" fill="#9ae4d5" font-size="15" font-weight="800" font-family="Inter, Arial, Helvetica, sans-serif">Quality Review</text>
    <text x="34" y="118" fill="#f5fdff" fill-opacity="1" font-size="38" font-weight="800" font-family="Inter, Arial, Helvetica, sans-serif">How to read quality</text><text x="34" y="166" fill="#f5fdff" fill-opacity="1" font-size="38" font-weight="800" font-family="Inter, Arial, Helvetica, sans-serif">documents</text>
    <text x="34" y="220" fill="#f5fdff" fill-opacity="0.82" font-size="18" font-weight="500" font-family="Inter, Arial, Helvetica, sans-serif">COAs, purity data, and lot</text><text x="34" y="246" fill="#f5fdff" fill-opacity="0.82" font-size="18" font-weight="500" font-family="Inter, Arial, Helvetica, sans-serif">checks that actually</text><text x="34" y="272" fill="#f5fdff" fill-opacity="0.82" font-size="18" font-weight="500" font-family="Inter, Arial, Helvetica, sans-serif">matter.</text>
    
    <g transform="translate(34 324)">
      <rect width="120" height="36" rx="18" fill="rgba(255,255,255,0.08)" stroke="rgba(255,255,255,0.18)" />
      <text x="60" y="23" text-anchor="middle" fill="#f5fdff" font-size="14" font-weight="700" font-family="Inter, Arial, Helvetica, sans-serif">COA</text>
    </g>
  
    <g transform="translate(180 324)">
      <rect width="120" height="36" rx="18" fill="rgba(255,255,255,0.08)" stroke="rgba(255,255,255,0.18)" />
      <text x="60" y="23" text-anchor="middle" fill="#f5fdff" font-size="14" font-weight="700" font-family="Inter, Arial, Helvetica, sans-serif">Purity</text>
    </g>
  
    <g transform="translate(326 324)">
      <rect width="136" height="36" rx="18" fill="rgba(255,255,255,0.08)" stroke="rgba(255,255,255,0.18)" />
      <text x="68" y="23" text-anchor="middle" fill="#f5fdff" font-size="14" font-weight="700" font-family="Inter, Arial, Helvetica, sans-serif">Traceability</text>
    </g>
  
    
    <g transform="translate(0 402)">
      <circle cx="18" cy="18" r="18" fill="#1fb2bd" opacity="0.95" />
      <text x="18" y="24" text-anchor="middle" fill="#10233f" font-size="14" font-weight="800" font-family="Inter, Arial, Helvetica, sans-serif">1</text>
      <rect x="52" y="0" width="444" height="54" rx="18" fill="rgba(255,255,255,0.06)" stroke="rgba(255,255,255,0.12)" />
      <text x="76" y="23" fill="#f5fdff" fill-opacity="0.86" font-size="16" font-weight="500" font-family="Inter, Arial, Helvetica, sans-serif">Looks more like a quality-system article than</text><text x="76" y="42" fill="#f5fdff" fill-opacity="0.86" font-size="16" font-weight="500" font-family="Inter, Arial, Helvetica, sans-serif">a decorative blog card.</text>
    </g>
  
    <g transform="translate(0 474)">
      <circle cx="18" cy="18" r="18" fill="#9ae4d5" opacity="0.95" />
      <text x="18" y="24" text-anchor="middle" fill="#10233f" font-size="14" font-weight="800" font-family="Inter, Arial, Helvetica, sans-serif">2</text>
      <rect x="52" y="0" width="444" height="54" rx="18" fill="rgba(255,255,255,0.06)" stroke="rgba(255,255,255,0.12)" />
      <text x="76" y="23" fill="#f5fdff" fill-opacity="0.86" font-size="16" font-weight="500" font-family="Inter, Arial, Helvetica, sans-serif">Makes the role of COA review and release</text><text x="76" y="42" fill="#f5fdff" fill-opacity="0.86" font-size="16" font-weight="500" font-family="Inter, Arial, Helvetica, sans-serif">support visually obvious.</text>
    </g>
  
  </g>
</svg>