<?xml version="1.0" encoding="UTF-8"?>
<svg width="1400" height="860" viewBox="0 0 1400 860" fill="none" xmlns="http://www.w3.org/2000/svg">
  <defs>
    <linearGradient id="bgInline" x1="80" y1="80" x2="1320" y2="800" gradientUnits="userSpaceOnUse">
      <stop stop-color="#0c2038" />
      <stop offset="1" stop-color="#12456f" />
    </linearGradient>
  </defs>
  <rect width="1400" height="860" rx="52" fill="url(#bgInline)" />
  <circle cx="1180" cy="132" r="150" fill="#1bb3c5" opacity="0.14" />
  <circle cx="170" cy="720" r="186" fill="#ffd56d" opacity="0.15" />
  <g transform="translate(60 78)">
    <rect width="722" height="666" rx="40" fill="rgba(255,255,255,0.08)" stroke="rgba(255,255,255,0.14)" />
    <rect x="30" y="30" width="132" height="32" rx="16" fill="#1bb3c5" opacity="0.92" />
    <text x="96" y="51" text-anchor="middle" fill="#0c2038" font-size="14" font-weight="800" font-family="Inter, Arial, Helvetica, sans-serif">Atlas Insight</text>
    <text x="30" y="106" fill="#f7fcff" font-size="28" font-weight="800" font-family="Inter, Arial, Helvetica, sans-serif">Market growth view</text>
    <text x="30" y="136" fill="#f7ead1" fill-opacity="0.88" font-size="16" font-weight="600" font-family="Inter, Arial, Helvetica, sans-serif">Category momentum, demand concentration,</text><text x="30" y="157" fill="#f7ead1" fill-opacity="0.88" font-size="16" font-weight="600" font-family="Inter, Arial, Helvetica, sans-serif">and supplier expansion</text>
    <g transform="scale(0.86) translate(8 114)">
      
    <g transform="translate(58 196)">
      <rect width="688" height="396" rx="34" fill="rgba(255,255,255,0.06)" stroke="rgba(255,255,255,0.15)" />
      <line x1="48" y1="78" x2="632" y2="78" stroke="rgba(255,255,255,0.11)" stroke-width="2" /><line x1="48" y1="152" x2="632" y2="152" stroke="rgba(255,255,255,0.11)" stroke-width="2" /><line x1="48" y1="226" x2="632" y2="226" stroke="rgba(255,255,255,0.11)" stroke-width="2" /><line x1="48" y1="300" x2="632" y2="300" stroke="rgba(255,255,255,0.11)" stroke-width="2" />
      <line x1="92" y1="44" x2="92" y2="332" stroke="rgba(255,255,255,0.07)" stroke-width="2" /><line x1="200" y1="44" x2="200" y2="332" stroke="rgba(255,255,255,0.07)" stroke-width="2" /><line x1="308" y1="44" x2="308" y2="332" stroke="rgba(255,255,255,0.07)" stroke-width="2" /><line x1="416" y1="44" x2="416" y2="332" stroke="rgba(255,255,255,0.07)" stroke-width="2" /><line x1="524" y1="44" x2="524" y2="332" stroke="rgba(255,255,255,0.07)" stroke-width="2" />
      <path d="M72 296C136 280 176 248 224 238C286 224 332 240 390 208C444 180 498 132 612 108" fill="none" stroke="#ffd56d" stroke-width="10" stroke-linecap="round" />
      <path d="M72 322C164 296 230 304 300 282C382 256 454 240 612 176" fill="none" stroke="#1bb3c5" stroke-width="8" stroke-linecap="round" opacity="0.95" />
      
    <g transform="translate(62 420)">
      <rect width="196" height="112" rx="24" fill="rgba(255,255,255,0.06)" stroke="rgba(255,255,255,0.14)" />
      <rect x="22" y="20" width="94" height="10" rx="5" fill="#ffd56d" opacity="0.92" />
      <text x="22" y="56" fill="#f7fcff" font-size="20" font-weight="700" font-family="Inter, Arial, Helvetica, sans-serif">Category demand</text>
      <text x="22" y="82" fill="#f7fcff" fill-opacity="0.72" font-size="14" font-weight="500" font-family="Inter, Arial, Helvetica, sans-serif">Commercial signal used in</text><text x="22" y="102" fill="#f7fcff" fill-opacity="0.72" font-size="14" font-weight="500" font-family="Inter, Arial, Helvetica, sans-serif">sourcing review.</text>
    </g>
  
    <g transform="translate(276 420)">
      <rect width="196" height="112" rx="24" fill="rgba(255,255,255,0.06)" stroke="rgba(255,255,255,0.14)" />
      <rect x="22" y="20" width="94" height="10" rx="5" fill="#ffd56d" opacity="0.92" />
      <text x="22" y="56" fill="#f7fcff" font-size="20" font-weight="700" font-family="Inter, Arial, Helvetica, sans-serif">Supplier expansion</text>
      <text x="22" y="82" fill="#f7fcff" fill-opacity="0.72" font-size="14" font-weight="500" font-family="Inter, Arial, Helvetica, sans-serif">Commercial signal used in</text><text x="22" y="102" fill="#f7fcff" fill-opacity="0.72" font-size="14" font-weight="500" font-family="Inter, Arial, Helvetica, sans-serif">sourcing review.</text>
    </g>
  
    <g transform="translate(490 420)">
      <rect width="196" height="112" rx="24" fill="rgba(255,255,255,0.06)" stroke="rgba(255,255,255,0.14)" />
      <rect x="22" y="20" width="94" height="10" rx="5" fill="#ffd56d" opacity="0.92" />
      <text x="22" y="56" fill="#f7fcff" font-size="20" font-weight="700" font-family="Inter, Arial, Helvetica, sans-serif">Commercial visibility</text>
      <text x="22" y="82" fill="#f7fcff" fill-opacity="0.72" font-size="14" font-weight="500" font-family="Inter, Arial, Helvetica, sans-serif">Commercial signal used in</text><text x="22" y="102" fill="#f7fcff" fill-opacity="0.72" font-size="14" font-weight="500" font-family="Inter, Arial, Helvetica, sans-serif">sourcing review.</text>
    </g>
  
    </g>
  
    </g>
  </g>
  <g transform="translate(832 98)">
    <rect width="504" height="626" rx="38" fill="rgba(255,255,255,0.08)" stroke="rgba(255,255,255,0.14)" />
    <text x="34" y="54" fill="#ffd56d" font-size="15" font-weight="800" font-family="Inter, Arial, Helvetica, sans-serif">Market Trends</text>
    <text x="34" y="118" fill="#f7fcff" fill-opacity="1" font-size="38" font-weight="800" font-family="Inter, Arial, Helvetica, sans-serif">Where demand is moving</text>
    <text x="34" y="220" fill="#f7fcff" fill-opacity="0.82" font-size="18" font-weight="500" font-family="Inter, Arial, Helvetica, sans-serif">A quick read on category</text><text x="34" y="246" fill="#f7fcff" fill-opacity="0.82" font-size="18" font-weight="500" font-family="Inter, Arial, Helvetica, sans-serif">growth and supply</text><text x="34" y="272" fill="#f7fcff" fill-opacity="0.82" font-size="18" font-weight="500" font-family="Inter, Arial, Helvetica, sans-serif">momentum.</text>
    
    <g transform="translate(34 324)">
      <rect width="120" height="36" rx="18" fill="rgba(255,255,255,0.08)" stroke="rgba(255,255,255,0.18)" />
      <text x="60" y="23" text-anchor="middle" fill="#f7fcff" font-size="14" font-weight="700" font-family="Inter, Arial, Helvetica, sans-serif">Growth</text>
    </g>
  
    <g transform="translate(180 324)">
      <rect width="120" height="36" rx="18" fill="rgba(255,255,255,0.08)" stroke="rgba(255,255,255,0.18)" />
      <text x="60" y="23" text-anchor="middle" fill="#f7fcff" font-size="14" font-weight="700" font-family="Inter, Arial, Helvetica, sans-serif">Demand</text>
    </g>
  
    <g transform="translate(326 324)">
      <rect width="120" height="36" rx="18" fill="rgba(255,255,255,0.08)" stroke="rgba(255,255,255,0.18)" />
      <text x="60" y="23" text-anchor="middle" fill="#f7fcff" font-size="14" font-weight="700" font-family="Inter, Arial, Helvetica, sans-serif">Supply</text>
    </g>
  
    
    <g transform="translate(0 402)">
      <circle cx="18" cy="18" r="18" fill="#1bb3c5" opacity="0.95" />
      <text x="18" y="24" text-anchor="middle" fill="#0c2038" font-size="14" font-weight="800" font-family="Inter, Arial, Helvetica, sans-serif">1</text>
      <rect x="52" y="0" width="444" height="54" rx="18" fill="rgba(255,255,255,0.06)" stroke="rgba(255,255,255,0.12)" />
      <text x="76" y="23" fill="#f7fcff" fill-opacity="0.86" font-size="16" font-weight="500" font-family="Inter, Arial, Helvetica, sans-serif">Highlights where buyers see stable category</text><text x="76" y="42" fill="#f7fcff" fill-opacity="0.86" font-size="16" font-weight="500" font-family="Inter, Arial, Helvetica, sans-serif">interest and new sourcing activity.</text>
    </g>
  
    <g transform="translate(0 474)">
      <circle cx="18" cy="18" r="18" fill="#ffd56d" opacity="0.95" />
      <text x="18" y="24" text-anchor="middle" fill="#0c2038" font-size="14" font-weight="800" font-family="Inter, Arial, Helvetica, sans-serif">2</text>
      <rect x="52" y="0" width="444" height="54" rx="18" fill="rgba(255,255,255,0.06)" stroke="rgba(255,255,255,0.12)" />
      <text x="76" y="23" fill="#f7fcff" fill-opacity="0.86" font-size="16" font-weight="500" font-family="Inter, Arial, Helvetica, sans-serif">Supports trend-focused reading without turning</text><text x="76" y="42" fill="#f7fcff" fill-opacity="0.86" font-size="16" font-weight="500" font-family="Inter, Arial, Helvetica, sans-serif">the cover into a generic bar chart.</text>
    </g>
  
  </g>
</svg>