<?xml version="1.0" encoding="UTF-8"?>
<svg width="1600" height="900" viewBox="0 0 1600 900" fill="none" xmlns="http://www.w3.org/2000/svg">
  <defs>
    <linearGradient id="bg" x1="120" y1="80" x2="1510" y2="840" gradientUnits="userSpaceOnUse">
      <stop stop-color="#10243e" />
      <stop offset="1" stop-color="#1e507d" />
    </linearGradient>
    <linearGradient id="rightPanel" x1="930" y1="92" x2="1520" y2="786" gradientUnits="userSpaceOnUse">
      <stop stop-color="rgba(255,255,255,0.11)" />
      <stop offset="1" stop-color="rgba(255,255,255,0.06)" />
    </linearGradient>
  </defs>
  <rect width="1600" height="900" rx="56" fill="url(#bg)" />
  <circle cx="1380" cy="140" r="180" fill="#1da8c7" opacity="0.14" />
  <circle cx="180" cy="760" r="210" fill="#90e2d6" opacity="0.15" />
  <path d="M0 716C180 650 354 628 528 640C712 654 864 720 1056 714C1220 710 1402 636 1600 520V900H0V716Z" fill="rgba(255,255,255,0.04)" />
  <g opacity="0.1">
    <line x1="74" y1="106" x2="864" y2="106" stroke="white" /><line x1="74" y1="242" x2="864" y2="242" stroke="white" /><line x1="74" y1="378" x2="864" y2="378" stroke="white" /><line x1="74" y1="514" x2="864" y2="514" stroke="white" /><line x1="74" y1="650" x2="864" y2="650" stroke="white" />
    <line x1="86" y1="86" x2="86" y2="770" stroke="white" /><line x1="218" y1="86" x2="218" y2="770" stroke="white" /><line x1="350" y1="86" x2="350" y2="770" stroke="white" /><line x1="482" y1="86" x2="482" y2="770" stroke="white" /><line x1="614" y1="86" x2="614" y2="770" stroke="white" /><line x1="746" y1="86" x2="746" y2="770" stroke="white" />
  </g>
  <g transform="translate(72 84)">
    <rect width="816" height="734" rx="42" fill="rgba(255,255,255,0.08)" stroke="rgba(255,255,255,0.16)" />
    <rect x="34" y="34" width="150" height="34" rx="17" fill="#1da8c7" opacity="0.92" />
    <text x="109" y="56" text-anchor="middle" fill="#10243e" font-size="15" font-weight="800" font-family="Inter, Arial, Helvetica, sans-serif">Atlas Insight</text>
    <text x="34" y="114" fill="#f4fdff" font-size="30" font-weight="800" font-family="Inter, Arial, Helvetica, sans-serif">Atlas Labs quality flow</text>
    
    <g transform="translate(618 28)">
      <rect width="164" height="104" rx="28" fill="rgba(255,255,255,0.06)" stroke="rgba(255,255,255,0.14)" />
      <text x="28" y="48" fill="#f4fdff" font-size="38" font-weight="800" font-family="Inter, Arial, Helvetica, sans-serif">4</text>
      <text x="28" y="76" fill="#f4fdff" fill-opacity="0.72" font-size="15" font-weight="600" font-family="Inter, Arial, Helvetica, sans-serif">Core controls</text>
    </g>
  
    
    <g transform="translate(56 190)">
      <rect width="712" height="408" rx="34" fill="rgba(255,255,255,0.07)" stroke="rgba(255,255,255,0.15)" />
      <g transform="translate(44 48)">
        <path d="M88 0C112 0 128 18 128 42V72H170C192 72 208 88 208 110V128C208 150 194 168 172 172L212 252H166L132 186H78V300H36V186H0V148H36V42C36 18 60 0 88 0Z" fill="rgba(255,255,255,0.12)" stroke="rgba(255,255,255,0.2)" stroke-width="4" />
        <circle cx="136" cy="136" r="34" fill="#90e2d6" opacity="0.9" />
      </g>
      
    <g transform="translate(300 40)">
      <rect width="356" height="112" rx="24" fill="rgba(255,255,255,0.06)" stroke="rgba(255,255,255,0.14)" />
      <rect x="22" y="20" width="94" height="10" rx="5" fill="#90e2d6" opacity="0.92" />
      <text x="22" y="56" fill="#f4fdff" font-size="20" font-weight="700" font-family="Inter, Arial, Helvetica, sans-serif">Incoming review</text>
      <text x="22" y="82" fill="#f4fdff" fill-opacity="0.72" font-size="14" font-weight="500" font-family="Inter, Arial, Helvetica, sans-serif">Built into our internal</text><text x="22" y="102" fill="#f4fdff" fill-opacity="0.72" font-size="14" font-weight="500" font-family="Inter, Arial, Helvetica, sans-serif">review and supply-control</text>
    </g>
  
      
    <g transform="translate(300 178)">
      <rect width="356" height="112" rx="24" fill="rgba(255,255,255,0.06)" stroke="rgba(255,255,255,0.14)" />
      <rect x="22" y="20" width="94" height="10" rx="5" fill="#90e2d6" opacity="0.92" />
      <text x="22" y="56" fill="#f4fdff" font-size="20" font-weight="700" font-family="Inter, Arial, Helvetica, sans-serif">Document checks</text>
      <text x="22" y="82" fill="#f4fdff" fill-opacity="0.72" font-size="14" font-weight="500" font-family="Inter, Arial, Helvetica, sans-serif">Supports clearer release</text><text x="22" y="102" fill="#f4fdff" fill-opacity="0.72" font-size="14" font-weight="500" font-family="Inter, Arial, Helvetica, sans-serif">review and supply</text>
    </g>
  
      
    <g transform="translate(300 316)">
      <rect width="172" height="112" rx="24" fill="rgba(255,255,255,0.06)" stroke="rgba(255,255,255,0.14)" />
      <rect x="22" y="20" width="94" height="10" rx="5" fill="#90e2d6" opacity="0.92" />
      <text x="22" y="56" fill="#f4fdff" font-size="20" font-weight="700" font-family="Inter, Arial, Helvetica, sans-serif">Batch alignment</text>
      <text x="22" y="82" fill="#f4fdff" fill-opacity="0.72" font-size="14" font-weight="500" font-family="Inter, Arial, Helvetica, sans-serif">Keeps lot-level review</text><text x="22" y="102" fill="#f4fdff" fill-opacity="0.72" font-size="14" font-weight="500" font-family="Inter, Arial, Helvetica, sans-serif">aligned with incoming</text>
    </g>
  
      
    <g transform="translate(484 316)">
      <rect width="172" height="112" rx="24" fill="rgba(255,255,255,0.06)" stroke="rgba(255,255,255,0.14)" />
      <rect x="22" y="20" width="94" height="10" rx="5" fill="#90e2d6" opacity="0.92" />
      <text x="22" y="56" fill="#f4fdff" font-size="20" font-weight="700" font-family="Inter, Arial, Helvetica, sans-serif">Supply continuity</text>
      <text x="22" y="82" fill="#f4fdff" fill-opacity="0.72" font-size="14" font-weight="500" font-family="Inter, Arial, Helvetica, sans-serif">Helps maintain continuity</text><text x="22" y="102" fill="#f4fdff" fill-opacity="0.72" font-size="14" font-weight="500" font-family="Inter, Arial, Helvetica, sans-serif">across repeat commercial</text>
    </g>
  
    </g>
  
  </g>
  <g transform="translate(940 92)">
    <rect width="584" height="716" rx="44" fill="url(#rightPanel)" stroke="rgba(255,255,255,0.16)" />
    <rect x="42" y="42" width="170" height="38" rx="19" fill="#1da8c7" opacity="0.94" />
    <text x="127" y="66" text-anchor="middle" fill="#10243e" font-size="15" font-weight="800" font-family="Inter, Arial, Helvetica, sans-serif">Atlas Labs</text>
    <text x="42" y="170" fill="#f4fdff" fill-opacity="1" font-size="50" font-weight="800" font-family="Inter, Arial, Helvetica, sans-serif">How our review system</text><text x="42" y="228" fill="#f4fdff" fill-opacity="1" font-size="50" font-weight="800" font-family="Inter, Arial, Helvetica, sans-serif">works</text>
    <text x="42" y="300" fill="#d6eef2" fill-opacity="0.96" font-size="24" font-weight="600" font-family="Inter, Arial, Helvetica, sans-serif">The steps we use to review</text><text x="42" y="334" fill="#d6eef2" fill-opacity="0.96" font-size="24" font-weight="600" font-family="Inter, Arial, Helvetica, sans-serif">batches and documents.</text>
    <rect x="42" y="372" width="452" height="1" fill="rgba(255,255,255,0.14)" />
    
    <g transform="translate(42 418)">
      <rect width="160" height="36" rx="18" fill="rgba(255,255,255,0.08)" stroke="rgba(255,255,255,0.18)" />
      <text x="80" y="23" text-anchor="middle" fill="#f4fdff" font-size="14" font-weight="700" font-family="Inter, Arial, Helvetica, sans-serif">Incoming review</text>
    </g>
  
    
    <g transform="translate(188 418)">
      <rect width="136" height="36" rx="18" fill="rgba(255,255,255,0.08)" stroke="rgba(255,255,255,0.18)" />
      <text x="68" y="23" text-anchor="middle" fill="#f4fdff" font-size="14" font-weight="700" font-family="Inter, Arial, Helvetica, sans-serif">Traceability</text>
    </g>
  
    
    <g transform="translate(354 418)">
      <rect width="160" height="36" rx="18" fill="rgba(255,255,255,0.08)" stroke="rgba(255,255,255,0.18)" />
      <text x="80" y="23" text-anchor="middle" fill="#f4fdff" font-size="14" font-weight="700" font-family="Inter, Arial, Helvetica, sans-serif">Batch alignment</text>
    </g>
  
  </g>
</svg>