<?xml version="1.0" encoding="UTF-8"?>
<svg width="1600" height="900" viewBox="0 0 1600 900" fill="none" xmlns="http://www.w3.org/2000/svg">
  <defs>
    <linearGradient id="bg" x1="120" y1="80" x2="1510" y2="840" gradientUnits="userSpaceOnUse">
      <stop stop-color="#0f1d31" />
      <stop offset="1" stop-color="#32486f" />
    </linearGradient>
    <linearGradient id="rightPanel" x1="930" y1="92" x2="1520" y2="786" gradientUnits="userSpaceOnUse">
      <stop stop-color="rgba(255,255,255,0.11)" />
      <stop offset="1" stop-color="rgba(255,255,255,0.06)" />
    </linearGradient>
  </defs>
  <rect width="1600" height="900" rx="56" fill="url(#bg)" />
  <circle cx="1380" cy="140" r="180" fill="#1ea4c7" opacity="0.14" />
  <circle cx="180" cy="760" r="210" fill="#ffa062" opacity="0.15" />
  <path d="M0 716C180 650 354 628 528 640C712 654 864 720 1056 714C1220 710 1402 636 1600 520V900H0V716Z" fill="rgba(255,255,255,0.04)" />
  <g opacity="0.1">
    <line x1="74" y1="106" x2="864" y2="106" stroke="white" /><line x1="74" y1="242" x2="864" y2="242" stroke="white" /><line x1="74" y1="378" x2="864" y2="378" stroke="white" /><line x1="74" y1="514" x2="864" y2="514" stroke="white" /><line x1="74" y1="650" x2="864" y2="650" stroke="white" />
    <line x1="86" y1="86" x2="86" y2="770" stroke="white" /><line x1="218" y1="86" x2="218" y2="770" stroke="white" /><line x1="350" y1="86" x2="350" y2="770" stroke="white" /><line x1="482" y1="86" x2="482" y2="770" stroke="white" /><line x1="614" y1="86" x2="614" y2="770" stroke="white" /><line x1="746" y1="86" x2="746" y2="770" stroke="white" />
  </g>
  <g transform="translate(72 84)">
    <rect width="816" height="734" rx="42" fill="rgba(255,255,255,0.08)" stroke="rgba(255,255,255,0.16)" />
    <rect x="34" y="34" width="150" height="34" rx="17" fill="#1ea4c7" opacity="0.92" />
    <text x="109" y="56" text-anchor="middle" fill="#0f1d31" font-size="15" font-weight="800" font-family="Inter, Arial, Helvetica, sans-serif">Atlas Insight</text>
    <text x="34" y="114" fill="#fffaf7" font-size="30" font-weight="800" font-family="Inter, Arial, Helvetica, sans-serif">Pricing model</text>
    
    <g transform="translate(618 28)">
      <rect width="164" height="104" rx="28" fill="rgba(255,255,255,0.06)" stroke="rgba(255,255,255,0.14)" />
      <text x="28" y="48" fill="#fffaf7" font-size="38" font-weight="800" font-family="Inter, Arial, Helvetica, sans-serif">3</text>
      <text x="28" y="76" fill="#fffaf7" fill-opacity="0.72" font-size="15" font-weight="600" font-family="Inter, Arial, Helvetica, sans-serif">Primary cost levers</text>
    </g>
  
    
    <g transform="translate(58 188)">
      <rect width="344" height="408" rx="34" fill="rgba(255,255,255,0.07)" stroke="rgba(255,255,255,0.15)" />
      <text x="28" y="58" fill="#fffaf7" font-size="22" font-weight="750" font-family="Inter, Arial, Helvetica, sans-serif">Quote composition</text>
      
            <g transform="translate(28 100)">
              <rect width="286" height="68" rx="22" fill="rgba(255,255,255,0.06)" stroke="rgba(255,255,255,0.12)" />
              <rect x="18" y="20" width="84" height="28" rx="14" fill="#1ea4c7" opacity="0.94" />
              <text x="132" y="43" fill="#fffaf7" font-size="17" font-weight="650" font-family="Inter, Arial, Helvetica, sans-serif">Purity target</text>
            </g>
          
            <g transform="translate(28 196)">
              <rect width="286" height="68" rx="22" fill="rgba(255,255,255,0.06)" stroke="rgba(255,255,255,0.12)" />
              <rect x="18" y="20" width="130" height="28" rx="14" fill="#ffa062" opacity="0.94" />
              <text x="132" y="43" fill="#fffaf7" font-size="17" font-weight="650" font-family="Inter, Arial, Helvetica, sans-serif">Sequence complexity</text>
            </g>
          
            <g transform="translate(28 292)">
              <rect width="286" height="68" rx="22" fill="rgba(255,255,255,0.06)" stroke="rgba(255,255,255,0.12)" />
              <rect x="18" y="20" width="176" height="28" rx="14" fill="#1ea4c7" opacity="0.94" />
              <text x="132" y="43" fill="#fffaf7" font-size="17" font-weight="650" font-family="Inter, Arial, Helvetica, sans-serif">Order volume</text>
            </g>
          
      <g transform="translate(434 48)">
        <rect width="312" height="548" rx="34" fill="rgba(255,255,255,0.07)" stroke="rgba(255,255,255,0.15)" />
        <text x="28" y="56" fill="#fffaf7" font-size="22" font-weight="750" font-family="Inter, Arial, Helvetica, sans-serif">Commercial effect</text>
        <path d="M48 414V146" stroke="rgba(255,255,255,0.12)" stroke-width="4" stroke-linecap="round" />
        <path d="M48 414H262" stroke="rgba(255,255,255,0.12)" stroke-width="4" stroke-linecap="round" />
        <path d="M78 376C132 330 160 306 198 252C222 218 234 178 252 132" fill="none" stroke="#ffa062" stroke-width="10" stroke-linecap="round" />
        <circle cx="252" cy="132" r="14" fill="#ffa062" />
        <circle cx="198" cy="252" r="14" fill="#1ea4c7" />
        <circle cx="132" cy="330" r="14" fill="#ffa062" />
        
    <g transform="translate(28 452)">
      <rect width="256" height="112" rx="24" fill="rgba(255,255,255,0.06)" stroke="rgba(255,255,255,0.14)" />
      <rect x="22" y="20" width="94" height="10" rx="5" fill="#ffa062" opacity="0.92" />
      <text x="22" y="56" fill="#fffaf7" font-size="20" font-weight="700" font-family="Inter, Arial, Helvetica, sans-serif">Pricing context</text>
      <text x="22" y="82" fill="#fffaf7" fill-opacity="0.72" font-size="14" font-weight="500" font-family="Inter, Arial, Helvetica, sans-serif">Higher spec, tighter</text><text x="22" y="102" fill="#fffaf7" fill-opacity="0.72" font-size="14" font-weight="500" font-family="Inter, Arial, Helvetica, sans-serif">purity, and smaller</text>
    </g>
  
      </g>
    </g>
  
  </g>
  <g transform="translate(940 92)">
    <rect width="584" height="716" rx="44" fill="url(#rightPanel)" stroke="rgba(255,255,255,0.16)" />
    <rect x="42" y="42" width="170" height="38" rx="19" fill="#1ea4c7" opacity="0.94" />
    <text x="127" y="66" text-anchor="middle" fill="#0f1d31" font-size="15" font-weight="800" font-family="Inter, Arial, Helvetica, sans-serif">Pricing</text>
    <text x="42" y="170" fill="#fffaf7" fill-opacity="1" font-size="50" font-weight="800" font-family="Inter, Arial, Helvetica, sans-serif">What changes pricing</text>
    <text x="42" y="300" fill="#f7ded0" fill-opacity="0.96" font-size="24" font-weight="600" font-family="Inter, Arial, Helvetica, sans-serif">Purity, complexity, volume,</text><text x="42" y="334" fill="#f7ded0" fill-opacity="0.96" font-size="24" font-weight="600" font-family="Inter, Arial, Helvetica, sans-serif">and supply all shape the</text>
    <rect x="42" y="372" width="452" height="1" fill="rgba(255,255,255,0.14)" />
    
    <g transform="translate(42 418)">
      <rect width="120" height="36" rx="18" fill="rgba(255,255,255,0.08)" stroke="rgba(255,255,255,0.18)" />
      <text x="60" y="23" text-anchor="middle" fill="#fffaf7" font-size="14" font-weight="700" font-family="Inter, Arial, Helvetica, sans-serif">Purity</text>
    </g>
  
    
    <g transform="translate(188 418)">
      <rect width="120" height="36" rx="18" fill="rgba(255,255,255,0.08)" stroke="rgba(255,255,255,0.18)" />
      <text x="60" y="23" text-anchor="middle" fill="#fffaf7" font-size="14" font-weight="700" font-family="Inter, Arial, Helvetica, sans-serif">Complexity</text>
    </g>
  
    
    <g transform="translate(354 418)">
      <rect width="120" height="36" rx="18" fill="rgba(255,255,255,0.08)" stroke="rgba(255,255,255,0.18)" />
      <text x="60" y="23" text-anchor="middle" fill="#fffaf7" font-size="14" font-weight="700" font-family="Inter, Arial, Helvetica, sans-serif">Volume</text>
    </g>
  
  </g>
</svg>