<?xml version="1.0" encoding="UTF-8"?>
<svg width="1600" height="900" viewBox="0 0 1600 900" fill="none" xmlns="http://www.w3.org/2000/svg">
  <defs>
    <linearGradient id="bg" x1="120" y1="80" x2="1510" y2="840" gradientUnits="userSpaceOnUse">
      <stop stop-color="#0e2443" />
      <stop offset="1" stop-color="#1c4f82" />
    </linearGradient>
    <linearGradient id="rightPanel" x1="930" y1="92" x2="1520" y2="786" gradientUnits="userSpaceOnUse">
      <stop stop-color="rgba(255,255,255,0.11)" />
      <stop offset="1" stop-color="rgba(255,255,255,0.06)" />
    </linearGradient>
  </defs>
  <rect width="1600" height="900" rx="56" fill="url(#bg)" />
  <circle cx="1380" cy="140" r="180" fill="#22b5d2" opacity="0.14" />
  <circle cx="180" cy="760" r="210" fill="#7de1c6" opacity="0.15" />
  <path d="M0 716C180 650 354 628 528 640C712 654 864 720 1056 714C1220 710 1402 636 1600 520V900H0V716Z" fill="rgba(255,255,255,0.04)" />
  <g opacity="0.1">
    <line x1="74" y1="106" x2="864" y2="106" stroke="white" /><line x1="74" y1="242" x2="864" y2="242" stroke="white" /><line x1="74" y1="378" x2="864" y2="378" stroke="white" /><line x1="74" y1="514" x2="864" y2="514" stroke="white" /><line x1="74" y1="650" x2="864" y2="650" stroke="white" />
    <line x1="86" y1="86" x2="86" y2="770" stroke="white" /><line x1="218" y1="86" x2="218" y2="770" stroke="white" /><line x1="350" y1="86" x2="350" y2="770" stroke="white" /><line x1="482" y1="86" x2="482" y2="770" stroke="white" /><line x1="614" y1="86" x2="614" y2="770" stroke="white" /><line x1="746" y1="86" x2="746" y2="770" stroke="white" />
  </g>
  <g transform="translate(72 84)">
    <rect width="816" height="734" rx="42" fill="rgba(255,255,255,0.08)" stroke="rgba(255,255,255,0.16)" />
    <rect x="34" y="34" width="150" height="34" rx="17" fill="#22b5d2" opacity="0.92" />
    <text x="109" y="56" text-anchor="middle" fill="#0e2443" font-size="15" font-weight="800" font-family="Inter, Arial, Helvetica, sans-serif">Atlas Insight</text>
    <text x="34" y="114" fill="#f6fbff" font-size="30" font-weight="800" font-family="Inter, Arial, Helvetica, sans-serif">Regulatory checkpoints</text>
    
    <g transform="translate(618 28)">
      <rect width="164" height="104" rx="28" fill="rgba(255,255,255,0.06)" stroke="rgba(255,255,255,0.14)" />
      <text x="28" y="48" fill="#f6fbff" font-size="38" font-weight="800" font-family="Inter, Arial, Helvetica, sans-serif">3</text>
      <text x="28" y="76" fill="#f6fbff" fill-opacity="0.72" font-size="15" font-weight="600" font-family="Inter, Arial, Helvetica, sans-serif">Compliance pillars</text>
    </g>
  
    
    <g transform="translate(60 194)">
      <circle cx="146" cy="168" r="118" fill="rgba(255,255,255,0.08)" stroke="rgba(255,255,255,0.2)" stroke-width="4" />
      <ellipse cx="146" cy="168" rx="118" ry="44" fill="none" stroke="rgba(255,255,255,0.16)" stroke-width="4" />
      <ellipse cx="146" cy="168" rx="70" ry="118" fill="none" stroke="rgba(255,255,255,0.16)" stroke-width="4" />
      <path d="M28 168H264M52 112C78 130 104 140 146 140C186 140 216 126 248 108M48 228C84 206 112 198 154 198C188 198 220 206 252 224" fill="none" stroke="rgba(255,255,255,0.2)" stroke-width="3" />
      <path d="M268 168H650" stroke="rgba(255,255,255,0.16)" stroke-width="6" stroke-linecap="round" />
      
            <g transform="translate(334 118)">
              <circle cx="0" cy="50" r="24" fill="#22b5d2" />
              <text x="0" y="56" text-anchor="middle" fill="#0e2443" font-size="16" font-weight="800" font-family="Inter, Arial, Helvetica, sans-serif">1</text>
              <rect x="-58" y="108" width="116" height="84" rx="22" fill="rgba(255,255,255,0.07)" stroke="rgba(255,255,255,0.14)" />
              <text x="-40" y="142" fill="#f6fbff" fill-opacity="1" font-size="14" font-weight="700" font-family="Inter, Arial, Helvetica, sans-serif">Product</text><text x="-40" y="160" fill="#f6fbff" fill-opacity="1" font-size="14" font-weight="700" font-family="Inter, Arial, Helvetica, sans-serif">classification</text>
            </g>
          
            <g transform="translate(466 118)">
              <circle cx="0" cy="50" r="24" fill="#7de1c6" />
              <text x="0" y="56" text-anchor="middle" fill="#0e2443" font-size="16" font-weight="800" font-family="Inter, Arial, Helvetica, sans-serif">2</text>
              <rect x="-58" y="108" width="116" height="84" rx="22" fill="rgba(255,255,255,0.07)" stroke="rgba(255,255,255,0.14)" />
              <text x="-40" y="142" fill="#f6fbff" fill-opacity="1" font-size="14" font-weight="700" font-family="Inter, Arial, Helvetica, sans-serif">Import route</text><text x="-40" y="160" fill="#f6fbff" fill-opacity="1" font-size="14" font-weight="700" font-family="Inter, Arial, Helvetica, sans-serif">review</text>
            </g>
          
            <g transform="translate(598 118)">
              <circle cx="0" cy="50" r="24" fill="#22b5d2" />
              <text x="0" y="56" text-anchor="middle" fill="#0e2443" font-size="16" font-weight="800" font-family="Inter, Arial, Helvetica, sans-serif">3</text>
              <rect x="-58" y="108" width="116" height="84" rx="22" fill="rgba(255,255,255,0.07)" stroke="rgba(255,255,255,0.14)" />
              <text x="-40" y="142" fill="#f6fbff" fill-opacity="1" font-size="14" font-weight="700" font-family="Inter, Arial, Helvetica, sans-serif">Labeling</text><text x="-40" y="160" fill="#f6fbff" fill-opacity="1" font-size="14" font-weight="700" font-family="Inter, Arial, Helvetica, sans-serif">alignment</text>
            </g>
          
      
    <g transform="translate(0 326)">
      <rect width="220" height="112" rx="24" fill="rgba(255,255,255,0.06)" stroke="rgba(255,255,255,0.14)" />
      <rect x="22" y="20" width="94" height="10" rx="5" fill="#7de1c6" opacity="0.92" />
      <text x="22" y="56" fill="#f6fbff" font-size="20" font-weight="700" font-family="Inter, Arial, Helvetica, sans-serif">Context</text>
      <text x="22" y="82" fill="#f6fbff" fill-opacity="0.72" font-size="14" font-weight="500" font-family="Inter, Arial, Helvetica, sans-serif">Classification and</text><text x="22" y="102" fill="#f6fbff" fill-opacity="0.72" font-size="14" font-weight="500" font-family="Inter, Arial, Helvetica, sans-serif">intended use shape</text>
    </g>
  
      
    <g transform="translate(240 326)">
      <rect width="220" height="112" rx="24" fill="rgba(255,255,255,0.06)" stroke="rgba(255,255,255,0.14)" />
      <rect x="22" y="20" width="94" height="10" rx="5" fill="#7de1c6" opacity="0.92" />
      <text x="22" y="56" fill="#f6fbff" font-size="20" font-weight="700" font-family="Inter, Arial, Helvetica, sans-serif">Route</text>
      <text x="22" y="82" fill="#f6fbff" fill-opacity="0.72" font-size="14" font-weight="500" font-family="Inter, Arial, Helvetica, sans-serif">Import review depends on</text><text x="22" y="102" fill="#f6fbff" fill-opacity="0.72" font-size="14" font-weight="500" font-family="Inter, Arial, Helvetica, sans-serif">jurisdiction and buyer</text>
    </g>
  
      
    <g transform="translate(480 326)">
      <rect width="220" height="112" rx="24" fill="rgba(255,255,255,0.06)" stroke="rgba(255,255,255,0.14)" />
      <rect x="22" y="20" width="94" height="10" rx="5" fill="#7de1c6" opacity="0.92" />
      <text x="22" y="56" fill="#f6fbff" font-size="20" font-weight="700" font-family="Inter, Arial, Helvetica, sans-serif">Labeling</text>
      <text x="22" y="82" fill="#f6fbff" fill-opacity="0.72" font-size="14" font-weight="500" font-family="Inter, Arial, Helvetica, sans-serif">Commercial presentation</text><text x="22" y="102" fill="#f6fbff" fill-opacity="0.72" font-size="14" font-weight="500" font-family="Inter, Arial, Helvetica, sans-serif">should align with intended</text>
    </g>
  
    </g>
  
  </g>
  <g transform="translate(940 92)">
    <rect width="584" height="716" rx="44" fill="url(#rightPanel)" stroke="rgba(255,255,255,0.16)" />
    <rect x="42" y="42" width="170" height="38" rx="19" fill="#22b5d2" opacity="0.94" />
    <text x="127" y="66" text-anchor="middle" fill="#0e2443" font-size="15" font-weight="800" font-family="Inter, Arial, Helvetica, sans-serif">Regulation</text>
    <text x="42" y="170" fill="#f6fbff" fill-opacity="1" font-size="50" font-weight="800" font-family="Inter, Arial, Helvetica, sans-serif">Regulation by market</text>
    <text x="42" y="300" fill="#d7efe7" fill-opacity="0.96" font-size="24" font-weight="600" font-family="Inter, Arial, Helvetica, sans-serif">Classification, import review,</text><text x="42" y="334" fill="#d7efe7" fill-opacity="0.96" font-size="24" font-weight="600" font-family="Inter, Arial, Helvetica, sans-serif">and labeling in practical</text>
    <rect x="42" y="372" width="452" height="1" fill="rgba(255,255,255,0.14)" />
    
    <g transform="translate(42 418)">
      <rect width="152" height="36" rx="18" fill="rgba(255,255,255,0.08)" stroke="rgba(255,255,255,0.18)" />
      <text x="76" y="23" text-anchor="middle" fill="#f6fbff" font-size="14" font-weight="700" font-family="Inter, Arial, Helvetica, sans-serif">Classification</text>
    </g>
  
    
    <g transform="translate(188 418)">
      <rect width="120" height="36" rx="18" fill="rgba(255,255,255,0.08)" stroke="rgba(255,255,255,0.18)" />
      <text x="60" y="23" text-anchor="middle" fill="#f6fbff" font-size="14" font-weight="700" font-family="Inter, Arial, Helvetica, sans-serif">Import</text>
    </g>
  
    
    <g transform="translate(354 418)">
      <rect width="120" height="36" rx="18" fill="rgba(255,255,255,0.08)" stroke="rgba(255,255,255,0.18)" />
      <text x="60" y="23" text-anchor="middle" fill="#f6fbff" font-size="14" font-weight="700" font-family="Inter, Arial, Helvetica, sans-serif">Labeling</text>
    </g>
  
  </g>
</svg>