<?xml version="1.0" encoding="UTF-8"?>
<svg width="1600" height="900" viewBox="0 0 1600 900" fill="none" xmlns="http://www.w3.org/2000/svg">
  <defs>
    <linearGradient id="bg" x1="120" y1="80" x2="1510" y2="840" gradientUnits="userSpaceOnUse">
      <stop stop-color="#0c2038" />
      <stop offset="1" stop-color="#12456f" />
    </linearGradient>
    <linearGradient id="rightPanel" x1="930" y1="92" x2="1520" y2="786" gradientUnits="userSpaceOnUse">
      <stop stop-color="rgba(255,255,255,0.11)" />
      <stop offset="1" stop-color="rgba(255,255,255,0.06)" />
    </linearGradient>
  </defs>
  <rect width="1600" height="900" rx="56" fill="url(#bg)" />
  <circle cx="1380" cy="140" r="180" fill="#1bb3c5" opacity="0.14" />
  <circle cx="180" cy="760" r="210" fill="#ffd56d" opacity="0.15" />
  <path d="M0 716C180 650 354 628 528 640C712 654 864 720 1056 714C1220 710 1402 636 1600 520V900H0V716Z" fill="rgba(255,255,255,0.04)" />
  <g opacity="0.1">
    <line x1="74" y1="106" x2="864" y2="106" stroke="white" /><line x1="74" y1="242" x2="864" y2="242" stroke="white" /><line x1="74" y1="378" x2="864" y2="378" stroke="white" /><line x1="74" y1="514" x2="864" y2="514" stroke="white" /><line x1="74" y1="650" x2="864" y2="650" stroke="white" />
    <line x1="86" y1="86" x2="86" y2="770" stroke="white" /><line x1="218" y1="86" x2="218" y2="770" stroke="white" /><line x1="350" y1="86" x2="350" y2="770" stroke="white" /><line x1="482" y1="86" x2="482" y2="770" stroke="white" /><line x1="614" y1="86" x2="614" y2="770" stroke="white" /><line x1="746" y1="86" x2="746" y2="770" stroke="white" />
  </g>
  <g transform="translate(72 84)">
    <rect width="816" height="734" rx="42" fill="rgba(255,255,255,0.08)" stroke="rgba(255,255,255,0.16)" />
    <rect x="34" y="34" width="150" height="34" rx="17" fill="#1bb3c5" opacity="0.92" />
    <text x="109" y="56" text-anchor="middle" fill="#0c2038" font-size="15" font-weight="800" font-family="Inter, Arial, Helvetica, sans-serif">Atlas Insight</text>
    <text x="34" y="114" fill="#f7fcff" font-size="30" font-weight="800" font-family="Inter, Arial, Helvetica, sans-serif">Market growth view</text>
    
    <g transform="translate(618 28)">
      <rect width="164" height="104" rx="28" fill="rgba(255,255,255,0.06)" stroke="rgba(255,255,255,0.14)" />
      <text x="28" y="48" fill="#f7fcff" font-size="38" font-weight="800" font-family="Inter, Arial, Helvetica, sans-serif">3</text>
      <text x="28" y="76" fill="#f7fcff" fill-opacity="0.72" font-size="15" font-weight="600" font-family="Inter, Arial, Helvetica, sans-serif">Demand drivers</text>
    </g>
  
    
    <g transform="translate(58 196)">
      <rect width="688" height="396" rx="34" fill="rgba(255,255,255,0.06)" stroke="rgba(255,255,255,0.15)" />
      <line x1="48" y1="78" x2="632" y2="78" stroke="rgba(255,255,255,0.11)" stroke-width="2" /><line x1="48" y1="152" x2="632" y2="152" stroke="rgba(255,255,255,0.11)" stroke-width="2" /><line x1="48" y1="226" x2="632" y2="226" stroke="rgba(255,255,255,0.11)" stroke-width="2" /><line x1="48" y1="300" x2="632" y2="300" stroke="rgba(255,255,255,0.11)" stroke-width="2" />
      <line x1="92" y1="44" x2="92" y2="332" stroke="rgba(255,255,255,0.07)" stroke-width="2" /><line x1="200" y1="44" x2="200" y2="332" stroke="rgba(255,255,255,0.07)" stroke-width="2" /><line x1="308" y1="44" x2="308" y2="332" stroke="rgba(255,255,255,0.07)" stroke-width="2" /><line x1="416" y1="44" x2="416" y2="332" stroke="rgba(255,255,255,0.07)" stroke-width="2" /><line x1="524" y1="44" x2="524" y2="332" stroke="rgba(255,255,255,0.07)" stroke-width="2" />
      <path d="M72 296C136 280 176 248 224 238C286 224 332 240 390 208C444 180 498 132 612 108" fill="none" stroke="#ffd56d" stroke-width="10" stroke-linecap="round" />
      <path d="M72 322C164 296 230 304 300 282C382 256 454 240 612 176" fill="none" stroke="#1bb3c5" stroke-width="8" stroke-linecap="round" opacity="0.95" />
      
    <g transform="translate(62 420)">
      <rect width="196" height="112" rx="24" fill="rgba(255,255,255,0.06)" stroke="rgba(255,255,255,0.14)" />
      <rect x="22" y="20" width="94" height="10" rx="5" fill="#ffd56d" opacity="0.92" />
      <text x="22" y="56" fill="#f7fcff" font-size="20" font-weight="700" font-family="Inter, Arial, Helvetica, sans-serif">Category demand</text>
      <text x="22" y="82" fill="#f7fcff" fill-opacity="0.72" font-size="14" font-weight="500" font-family="Inter, Arial, Helvetica, sans-serif">Commercial signal used in</text><text x="22" y="102" fill="#f7fcff" fill-opacity="0.72" font-size="14" font-weight="500" font-family="Inter, Arial, Helvetica, sans-serif">sourcing review.</text>
    </g>
  
    <g transform="translate(276 420)">
      <rect width="196" height="112" rx="24" fill="rgba(255,255,255,0.06)" stroke="rgba(255,255,255,0.14)" />
      <rect x="22" y="20" width="94" height="10" rx="5" fill="#ffd56d" opacity="0.92" />
      <text x="22" y="56" fill="#f7fcff" font-size="20" font-weight="700" font-family="Inter, Arial, Helvetica, sans-serif">Supplier expansion</text>
      <text x="22" y="82" fill="#f7fcff" fill-opacity="0.72" font-size="14" font-weight="500" font-family="Inter, Arial, Helvetica, sans-serif">Commercial signal used in</text><text x="22" y="102" fill="#f7fcff" fill-opacity="0.72" font-size="14" font-weight="500" font-family="Inter, Arial, Helvetica, sans-serif">sourcing review.</text>
    </g>
  
    <g transform="translate(490 420)">
      <rect width="196" height="112" rx="24" fill="rgba(255,255,255,0.06)" stroke="rgba(255,255,255,0.14)" />
      <rect x="22" y="20" width="94" height="10" rx="5" fill="#ffd56d" opacity="0.92" />
      <text x="22" y="56" fill="#f7fcff" font-size="20" font-weight="700" font-family="Inter, Arial, Helvetica, sans-serif">Commercial visibility</text>
      <text x="22" y="82" fill="#f7fcff" fill-opacity="0.72" font-size="14" font-weight="500" font-family="Inter, Arial, Helvetica, sans-serif">Commercial signal used in</text><text x="22" y="102" fill="#f7fcff" fill-opacity="0.72" font-size="14" font-weight="500" font-family="Inter, Arial, Helvetica, sans-serif">sourcing review.</text>
    </g>
  
    </g>
  
  </g>
  <g transform="translate(940 92)">
    <rect width="584" height="716" rx="44" fill="url(#rightPanel)" stroke="rgba(255,255,255,0.16)" />
    <rect x="42" y="42" width="170" height="38" rx="19" fill="#1bb3c5" opacity="0.94" />
    <text x="127" y="66" text-anchor="middle" fill="#0c2038" font-size="15" font-weight="800" font-family="Inter, Arial, Helvetica, sans-serif">Market Trends</text>
    <text x="42" y="170" fill="#f7fcff" fill-opacity="1" font-size="50" font-weight="800" font-family="Inter, Arial, Helvetica, sans-serif">Where demand is moving</text>
    <text x="42" y="300" fill="#f7ead1" fill-opacity="0.96" font-size="24" font-weight="600" font-family="Inter, Arial, Helvetica, sans-serif">A quick read on category</text><text x="42" y="334" fill="#f7ead1" fill-opacity="0.96" font-size="24" font-weight="600" font-family="Inter, Arial, Helvetica, sans-serif">growth and supply momentum.</text>
    <rect x="42" y="372" width="452" height="1" fill="rgba(255,255,255,0.14)" />
    
    <g transform="translate(42 418)">
      <rect width="120" height="36" rx="18" fill="rgba(255,255,255,0.08)" stroke="rgba(255,255,255,0.18)" />
      <text x="60" y="23" text-anchor="middle" fill="#f7fcff" font-size="14" font-weight="700" font-family="Inter, Arial, Helvetica, sans-serif">Growth</text>
    </g>
  
    
    <g transform="translate(188 418)">
      <rect width="120" height="36" rx="18" fill="rgba(255,255,255,0.08)" stroke="rgba(255,255,255,0.18)" />
      <text x="60" y="23" text-anchor="middle" fill="#f7fcff" font-size="14" font-weight="700" font-family="Inter, Arial, Helvetica, sans-serif">Demand</text>
    </g>
  
    
    <g transform="translate(354 418)">
      <rect width="120" height="36" rx="18" fill="rgba(255,255,255,0.08)" stroke="rgba(255,255,255,0.18)" />
      <text x="60" y="23" text-anchor="middle" fill="#f7fcff" font-size="14" font-weight="700" font-family="Inter, Arial, Helvetica, sans-serif">Supply</text>
    </g>
  
  </g>
</svg>