<?xml version="1.0" encoding="UTF-8"?>
<svg width="1600" height="900" viewBox="0 0 1600 900" fill="none" xmlns="http://www.w3.org/2000/svg">
  <defs>
    <linearGradient id="bg" x1="120" y1="80" x2="1510" y2="840" gradientUnits="userSpaceOnUse">
      <stop stop-color="#11243f" />
      <stop offset="1" stop-color="#24507d" />
    </linearGradient>
    <linearGradient id="rightPanel" x1="930" y1="92" x2="1520" y2="786" gradientUnits="userSpaceOnUse">
      <stop stop-color="rgba(255,255,255,0.11)" />
      <stop offset="1" stop-color="rgba(255,255,255,0.06)" />
    </linearGradient>
  </defs>
  <rect width="1600" height="900" rx="56" fill="url(#bg)" />
  <circle cx="1380" cy="140" r="180" fill="#1fa8cb" opacity="0.14" />
  <circle cx="180" cy="760" r="210" fill="#f8c85a" opacity="0.15" />
  <path d="M0 716C180 650 354 628 528 640C712 654 864 720 1056 714C1220 710 1402 636 1600 520V900H0V716Z" fill="rgba(255,255,255,0.04)" />
  <g opacity="0.1">
    <line x1="74" y1="106" x2="864" y2="106" stroke="white" /><line x1="74" y1="242" x2="864" y2="242" stroke="white" /><line x1="74" y1="378" x2="864" y2="378" stroke="white" /><line x1="74" y1="514" x2="864" y2="514" stroke="white" /><line x1="74" y1="650" x2="864" y2="650" stroke="white" />
    <line x1="86" y1="86" x2="86" y2="770" stroke="white" /><line x1="218" y1="86" x2="218" y2="770" stroke="white" /><line x1="350" y1="86" x2="350" y2="770" stroke="white" /><line x1="482" y1="86" x2="482" y2="770" stroke="white" /><line x1="614" y1="86" x2="614" y2="770" stroke="white" /><line x1="746" y1="86" x2="746" y2="770" stroke="white" />
  </g>
  <g transform="translate(72 84)">
    <rect width="816" height="734" rx="42" fill="rgba(255,255,255,0.08)" stroke="rgba(255,255,255,0.16)" />
    <rect x="34" y="34" width="150" height="34" rx="17" fill="#1fa8cb" opacity="0.92" />
    <text x="109" y="56" text-anchor="middle" fill="#11243f" font-size="15" font-weight="800" font-family="Inter, Arial, Helvetica, sans-serif">Atlas Insight</text>
    <text x="34" y="114" fill="#fffaf1" font-size="30" font-weight="800" font-family="Inter, Arial, Helvetica, sans-serif">Demand cluster view</text>
    
    <g transform="translate(618 28)">
      <rect width="164" height="104" rx="28" fill="rgba(255,255,255,0.06)" stroke="rgba(255,255,255,0.14)" />
      <text x="28" y="48" fill="#fffaf1" font-size="38" font-weight="800" font-family="Inter, Arial, Helvetica, sans-serif">3</text>
      <text x="28" y="76" fill="#fffaf1" fill-opacity="0.72" font-size="15" font-weight="600" font-family="Inter, Arial, Helvetica, sans-serif">Main clusters</text>
    </g>
  
    
    <g transform="translate(58 202)">
      
            <g transform="translate(18 0)">
              <rect x="26" width="74" height="196" rx="28" fill="rgba(255,255,255,0.1)" stroke="rgba(255,255,255,0.16)" />
              <rect x="38" y="18" width="50" height="18" rx="9" fill="#f8c85a" />
              <rect x="38" y="54" width="50" height="92" rx="24" fill="rgba(255,255,255,0.84)" />
              <rect x="38" y="160" width="50" height="12" rx="6" fill="rgba(255,255,255,0.22)" />
              <rect x="-10" y="226" width="146" height="88" rx="24" fill="rgba(255,255,255,0.07)" stroke="rgba(255,255,255,0.14)" />
              <text x="18" y="260" fill="#fffaf1" fill-opacity="1" font-size="15" font-weight="700" font-family="Inter, Arial, Helvetica, sans-serif">Signal</text><text x="18" y="278" fill="#fffaf1" fill-opacity="1" font-size="15" font-weight="700" font-family="Inter, Arial, Helvetica, sans-serif">peptides</text>
            </g>
          
            <g transform="translate(238 0)">
              <rect x="26" width="74" height="196" rx="28" fill="rgba(255,255,255,0.1)" stroke="rgba(255,255,255,0.16)" />
              <rect x="38" y="18" width="50" height="18" rx="9" fill="#1fa8cb" />
              <rect x="38" y="54" width="50" height="92" rx="24" fill="rgba(255,255,255,0.84)" />
              <rect x="38" y="160" width="50" height="12" rx="6" fill="rgba(255,255,255,0.22)" />
              <rect x="-10" y="226" width="146" height="88" rx="24" fill="rgba(255,255,255,0.07)" stroke="rgba(255,255,255,0.14)" />
              <text x="18" y="260" fill="#fffaf1" fill-opacity="1" font-size="15" font-weight="700" font-family="Inter, Arial, Helvetica, sans-serif">Carrier</text><text x="18" y="278" fill="#fffaf1" fill-opacity="1" font-size="15" font-weight="700" font-family="Inter, Arial, Helvetica, sans-serif">peptides</text>
            </g>
          
            <g transform="translate(458 0)">
              <rect x="26" width="74" height="196" rx="28" fill="rgba(255,255,255,0.1)" stroke="rgba(255,255,255,0.16)" />
              <rect x="38" y="18" width="50" height="18" rx="9" fill="#f8c85a" />
              <rect x="38" y="54" width="50" height="92" rx="24" fill="rgba(255,255,255,0.84)" />
              <rect x="38" y="160" width="50" height="12" rx="6" fill="rgba(255,255,255,0.22)" />
              <rect x="-10" y="226" width="146" height="88" rx="24" fill="rgba(255,255,255,0.07)" stroke="rgba(255,255,255,0.14)" />
              <text x="18" y="260" fill="#fffaf1" fill-opacity="1" font-size="15" font-weight="700" font-family="Inter, Arial, Helvetica, sans-serif">Research-focused</text><text x="18" y="278" fill="#fffaf1" fill-opacity="1" font-size="15" font-weight="700" font-family="Inter, Arial, Helvetica, sans-serif">lines</text>
            </g>
          
      <path d="M58 358C144 326 210 322 296 292C382 262 452 234 618 170" fill="none" stroke="#f8c85a" stroke-width="9" stroke-linecap="round" />
    </g>
  
  </g>
  <g transform="translate(940 92)">
    <rect width="584" height="716" rx="44" fill="url(#rightPanel)" stroke="rgba(255,255,255,0.16)" />
    <rect x="42" y="42" width="170" height="38" rx="19" fill="#1fa8cb" opacity="0.94" />
    <text x="127" y="66" text-anchor="middle" fill="#11243f" font-size="15" font-weight="800" font-family="Inter, Arial, Helvetica, sans-serif">Demand Signals</text>
    <text x="42" y="170" fill="#fffaf1" fill-opacity="1" font-size="50" font-weight="800" font-family="Inter, Arial, Helvetica, sans-serif">Peptides buyers ask</text><text x="42" y="228" fill="#fffaf1" fill-opacity="1" font-size="50" font-weight="800" font-family="Inter, Arial, Helvetica, sans-serif">for most</text>
    <text x="42" y="300" fill="#f6e8c8" fill-opacity="0.96" font-size="24" font-weight="600" font-family="Inter, Arial, Helvetica, sans-serif">The groups getting the most</text><text x="42" y="334" fill="#f6e8c8" fill-opacity="0.96" font-size="24" font-weight="600" font-family="Inter, Arial, Helvetica, sans-serif">attention across the market.</text>
    <rect x="42" y="372" width="452" height="1" fill="rgba(255,255,255,0.14)" />
    
    <g transform="translate(42 418)">
      <rect width="120" height="36" rx="18" fill="rgba(255,255,255,0.08)" stroke="rgba(255,255,255,0.18)" />
      <text x="60" y="23" text-anchor="middle" fill="#fffaf1" font-size="14" font-weight="700" font-family="Inter, Arial, Helvetica, sans-serif">Signal</text>
    </g>
  
    
    <g transform="translate(188 418)">
      <rect width="120" height="36" rx="18" fill="rgba(255,255,255,0.08)" stroke="rgba(255,255,255,0.18)" />
      <text x="60" y="23" text-anchor="middle" fill="#fffaf1" font-size="14" font-weight="700" font-family="Inter, Arial, Helvetica, sans-serif">Carrier</text>
    </g>
  
    
    <g transform="translate(354 418)">
      <rect width="120" height="36" rx="18" fill="rgba(255,255,255,0.08)" stroke="rgba(255,255,255,0.18)" />
      <text x="60" y="23" text-anchor="middle" fill="#fffaf1" font-size="14" font-weight="700" font-family="Inter, Arial, Helvetica, sans-serif">Research</text>
    </g>
  
  </g>
</svg>