<?xml version="1.0" encoding="UTF-8"?>
<svg width="1600" height="900" viewBox="0 0 1600 900" fill="none" xmlns="http://www.w3.org/2000/svg">
  <defs>
    <linearGradient id="bg" x1="120" y1="80" x2="1510" y2="840" gradientUnits="userSpaceOnUse">
      <stop stop-color="#071c31" />
      <stop offset="1" stop-color="#0f2c4e" />
    </linearGradient>
    <linearGradient id="rightPanel" x1="930" y1="92" x2="1520" y2="786" gradientUnits="userSpaceOnUse">
      <stop stop-color="rgba(255,255,255,0.11)" />
      <stop offset="1" stop-color="rgba(255,255,255,0.06)" />
    </linearGradient>
  </defs>
  <rect width="1600" height="900" rx="56" fill="url(#bg)" />
  <circle cx="1380" cy="140" r="180" fill="#1485b8" opacity="0.14" />
  <circle cx="180" cy="760" r="210" fill="#89ddd2" opacity="0.15" />
  <path d="M0 716C180 650 354 628 528 640C712 654 864 720 1056 714C1220 710 1402 636 1600 520V900H0V716Z" fill="rgba(255,255,255,0.04)" />
  <g opacity="0.1">
    <line x1="74" y1="106" x2="864" y2="106" stroke="white" /><line x1="74" y1="242" x2="864" y2="242" stroke="white" /><line x1="74" y1="378" x2="864" y2="378" stroke="white" /><line x1="74" y1="514" x2="864" y2="514" stroke="white" /><line x1="74" y1="650" x2="864" y2="650" stroke="white" />
    <line x1="86" y1="86" x2="86" y2="770" stroke="white" /><line x1="218" y1="86" x2="218" y2="770" stroke="white" /><line x1="350" y1="86" x2="350" y2="770" stroke="white" /><line x1="482" y1="86" x2="482" y2="770" stroke="white" /><line x1="614" y1="86" x2="614" y2="770" stroke="white" /><line x1="746" y1="86" x2="746" y2="770" stroke="white" />
  </g>
  <g transform="translate(72 84)">
    <rect width="816" height="734" rx="42" fill="rgba(255,255,255,0.08)" stroke="rgba(255,255,255,0.16)" />
    <rect x="34" y="34" width="150" height="34" rx="17" fill="#1485b8" opacity="0.92" />
    <text x="109" y="56" text-anchor="middle" fill="#071c31" font-size="15" font-weight="800" font-family="Inter, Arial, Helvetica, sans-serif">Atlas Insight</text>
    <text x="34" y="114" fill="#f5fbff" font-size="30" font-weight="800" font-family="Inter, Arial, Helvetica, sans-serif">Structure overview</text>
    
    <g transform="translate(618 28)">
      <rect width="164" height="104" rx="28" fill="rgba(255,255,255,0.06)" stroke="rgba(255,255,255,0.14)" />
      <text x="28" y="48" fill="#f5fbff" font-size="38" font-weight="800" font-family="Inter, Arial, Helvetica, sans-serif">4</text>
      <text x="28" y="76" fill="#f5fbff" fill-opacity="0.72" font-size="15" font-weight="600" font-family="Inter, Arial, Helvetica, sans-serif">Core buyer lenses</text>
    </g>
  
    
    <g transform="translate(54 188)">
      <path d="M110 112C184 56 264 48 330 112C398 176 474 180 562 112" fill="none" stroke="#1485b8" stroke-width="10" stroke-linecap="round" />
      <path d="M122 212C196 154 284 150 350 212C416 274 502 280 584 212" fill="none" stroke="#89ddd2" stroke-width="10" stroke-linecap="round" opacity="0.95" />
      
            <g transform="translate(88 112)">
              <circle cx="0" cy="0" r="24" fill="#89ddd2" />
              <circle cx="0" cy="0" r="10" fill="#f5fbff" opacity="0.9" />
              <rect x="-54" y="46" width="108" height="38" rx="14" fill="rgba(255,255,255,0.08)" stroke="rgba(255,255,255,0.14)" />
              <text x="0" y="70" text-anchor="middle" fill="#f5fbff" font-size="13" font-weight="700" font-family="Inter, Arial, Helvetica, sans-serif">Amino acids</text>
            </g>
          
            <g transform="translate(242 212)">
              <circle cx="0" cy="0" r="24" fill="#1485b8" />
              <circle cx="0" cy="0" r="10" fill="#f5fbff" opacity="0.9" />
              <rect x="-54" y="46" width="108" height="38" rx="14" fill="rgba(255,255,255,0.08)" stroke="rgba(255,255,255,0.14)" />
              <text x="0" y="70" text-anchor="middle" fill="#f5fbff" font-size="13" font-weight="700" font-family="Inter, Arial, Helvetica, sans-serif">Peptide bonds</text>
            </g>
          
            <g transform="translate(396 112)">
              <circle cx="0" cy="0" r="24" fill="#89ddd2" />
              <circle cx="0" cy="0" r="10" fill="#f5fbff" opacity="0.9" />
              <rect x="-54" y="46" width="108" height="38" rx="14" fill="rgba(255,255,255,0.08)" stroke="rgba(255,255,255,0.14)" />
              <text x="0" y="70" text-anchor="middle" fill="#f5fbff" font-size="13" font-weight="700" font-family="Inter, Arial, Helvetica, sans-serif">Chain length</text>
            </g>
          
            <g transform="translate(550 212)">
              <circle cx="0" cy="0" r="24" fill="#1485b8" />
              <circle cx="0" cy="0" r="10" fill="#f5fbff" opacity="0.9" />
              <rect x="-54" y="46" width="108" height="38" rx="14" fill="rgba(255,255,255,0.08)" stroke="rgba(255,255,255,0.14)" />
              <text x="0" y="70" text-anchor="middle" fill="#f5fbff" font-size="13" font-weight="700" font-family="Inter, Arial, Helvetica, sans-serif">Use profile</text>
            </g>
          
      
    <g transform="translate(0 292)">
      <rect width="214" height="112" rx="24" fill="rgba(255,255,255,0.06)" stroke="rgba(255,255,255,0.14)" />
      <rect x="22" y="20" width="94" height="10" rx="5" fill="#89ddd2" opacity="0.92" />
      <text x="22" y="56" fill="#f5fbff" font-size="20" font-weight="700" font-family="Inter, Arial, Helvetica, sans-serif">Sequence</text>
      <text x="22" y="82" fill="#f5fbff" fill-opacity="0.72" font-size="14" font-weight="500" font-family="Inter, Arial, Helvetica, sans-serif">Amino acid order defines</text><text x="22" y="102" fill="#f5fbff" fill-opacity="0.72" font-size="14" font-weight="500" font-family="Inter, Arial, Helvetica, sans-serif">the peptide chain.</text>
    </g>
  
      
    <g transform="translate(234 292)">
      <rect width="214" height="112" rx="24" fill="rgba(255,255,255,0.06)" stroke="rgba(255,255,255,0.14)" />
      <rect x="22" y="20" width="94" height="10" rx="5" fill="#89ddd2" opacity="0.92" />
      <text x="22" y="56" fill="#f5fbff" font-size="20" font-weight="700" font-family="Inter, Arial, Helvetica, sans-serif">Category</text>
      <text x="22" y="82" fill="#f5fbff" fill-opacity="0.72" font-size="14" font-weight="500" font-family="Inter, Arial, Helvetica, sans-serif">Functional class shapes</text><text x="22" y="102" fill="#f5fbff" fill-opacity="0.72" font-size="14" font-weight="500" font-family="Inter, Arial, Helvetica, sans-serif">how buyers compare use</text>
    </g>
  
      
    <g transform="translate(468 292)">
      <rect width="214" height="112" rx="24" fill="rgba(255,255,255,0.06)" stroke="rgba(255,255,255,0.14)" />
      <rect x="22" y="20" width="94" height="10" rx="5" fill="#89ddd2" opacity="0.92" />
      <text x="22" y="56" fill="#f5fbff" font-size="20" font-weight="700" font-family="Inter, Arial, Helvetica, sans-serif">Context</text>
      <text x="22" y="82" fill="#f5fbff" fill-opacity="0.72" font-size="14" font-weight="500" font-family="Inter, Arial, Helvetica, sans-serif">Commercial sourcing adds</text><text x="22" y="102" fill="#f5fbff" fill-opacity="0.72" font-size="14" font-weight="500" font-family="Inter, Arial, Helvetica, sans-serif">documentation and</text>
    </g>
  
    </g>
  
  </g>
  <g transform="translate(940 92)">
    <rect width="584" height="716" rx="44" fill="url(#rightPanel)" stroke="rgba(255,255,255,0.16)" />
    <rect x="42" y="42" width="170" height="38" rx="19" fill="#1485b8" opacity="0.94" />
    <text x="127" y="66" text-anchor="middle" fill="#071c31" font-size="15" font-weight="800" font-family="Inter, Arial, Helvetica, sans-serif">Peptide Basics</text>
    <text x="42" y="170" fill="#f5fbff" fill-opacity="1" font-size="50" font-weight="800" font-family="Inter, Arial, Helvetica, sans-serif">What peptides are</text>
    <text x="42" y="300" fill="#d8ecf5" fill-opacity="0.96" font-size="24" font-weight="600" font-family="Inter, Arial, Helvetica, sans-serif">Structure, use, and sourcing</text><text x="42" y="334" fill="#d8ecf5" fill-opacity="0.96" font-size="24" font-weight="600" font-family="Inter, Arial, Helvetica, sans-serif">in one view.</text>
    <rect x="42" y="372" width="452" height="1" fill="rgba(255,255,255,0.14)" />
    
    <g transform="translate(42 418)">
      <rect width="136" height="36" rx="18" fill="rgba(255,255,255,0.08)" stroke="rgba(255,255,255,0.18)" />
      <text x="68" y="23" text-anchor="middle" fill="#f5fbff" font-size="14" font-weight="700" font-family="Inter, Arial, Helvetica, sans-serif">Chain length</text>
    </g>
  
    
    <g transform="translate(188 418)">
      <rect width="128" height="36" rx="18" fill="rgba(255,255,255,0.08)" stroke="rgba(255,255,255,0.18)" />
      <text x="64" y="23" text-anchor="middle" fill="#f5fbff" font-size="14" font-weight="700" font-family="Inter, Arial, Helvetica, sans-serif">Use profile</text>
    </g>
  
    
    <g transform="translate(354 418)">
      <rect width="184" height="36" rx="18" fill="rgba(255,255,255,0.08)" stroke="rgba(255,255,255,0.18)" />
      <text x="92" y="23" text-anchor="middle" fill="#f5fbff" font-size="14" font-weight="700" font-family="Inter, Arial, Helvetica, sans-serif">Regulatory context</text>
    </g>
  
  </g>
</svg>